<svg width="808" height="628" viewBox="0 0 808 628" fill="none" xmlns="http://www.w3.org/2000/svg">
<path d="M216.815 513.898C217.011 514.093 217.328 514.092 217.523 513.896L220.697 510.707C220.892 510.511 220.891 510.195 220.696 510C220.5 509.805 220.183 509.806 219.988 510.001L217.167 512.836L214.332 510.014C214.136 509.82 213.819 509.82 213.625 510.016C213.43 510.212 213.43 510.528 213.626 510.723L216.815 513.898ZM216.491 436.577L216.668 513.545L217.668 513.542L217.491 436.575L216.491 436.577Z" fill="#E5E5E5"/>
<path d="M167.771 401.762C168.415 401.762 168.966 401.855 169.423 402.042C169.88 402.219 170.324 402.499 170.753 402.882L170.025 403.694C169.661 403.404 169.302 403.194 168.947 403.064C168.602 402.924 168.228 402.854 167.827 402.854C167.323 402.854 166.908 402.97 166.581 403.204C166.254 403.437 166.091 403.778 166.091 404.226C166.091 404.506 166.147 404.744 166.259 404.94C166.371 405.126 166.576 405.299 166.875 405.458C167.183 405.616 167.626 405.784 168.205 405.962C168.812 406.148 169.316 406.349 169.717 406.564C170.118 406.778 170.44 407.077 170.683 407.46C170.935 407.833 171.061 408.309 171.061 408.888C171.061 409.448 170.921 409.942 170.641 410.372C170.37 410.801 169.974 411.137 169.451 411.38C168.938 411.622 168.326 411.744 167.617 411.744C166.282 411.744 165.19 411.328 164.341 410.498L165.069 409.686C165.461 410.003 165.858 410.246 166.259 410.414C166.66 410.572 167.108 410.652 167.603 410.652C168.2 410.652 168.695 410.507 169.087 410.218C169.479 409.919 169.675 409.49 169.675 408.93C169.675 408.612 169.614 408.351 169.493 408.146C169.372 407.931 169.162 407.74 168.863 407.572C168.574 407.404 168.149 407.236 167.589 407.068C166.6 406.769 165.876 406.41 165.419 405.99C164.962 405.57 164.733 405 164.733 404.282C164.733 403.796 164.859 403.362 165.111 402.98C165.372 402.597 165.732 402.298 166.189 402.084C166.656 401.869 167.183 401.762 167.771 401.762ZM174.238 404.198V411.576H172.95V404.198H174.238ZM173.58 400.656C173.851 400.656 174.07 400.74 174.238 400.908C174.406 401.076 174.49 401.286 174.49 401.538C174.49 401.79 174.406 402 174.238 402.168C174.07 402.326 173.851 402.406 173.58 402.406C173.319 402.406 173.104 402.326 172.936 402.168C172.768 402 172.684 401.79 172.684 401.538C172.684 401.286 172.768 401.076 172.936 400.908C173.104 400.74 173.319 400.656 173.58 400.656ZM182.851 404.534C182.571 404.627 182.263 404.688 181.927 404.716C181.591 404.744 181.181 404.758 180.695 404.758C181.563 405.15 181.997 405.77 181.997 406.62C181.997 407.357 181.745 407.959 181.241 408.426C180.737 408.892 180.051 409.126 179.183 409.126C178.847 409.126 178.535 409.079 178.245 408.986C178.133 409.06 178.045 409.163 177.979 409.294C177.914 409.415 177.881 409.541 177.881 409.672C177.881 410.073 178.203 410.274 178.847 410.274H180.023C180.518 410.274 180.957 410.362 181.339 410.54C181.722 410.717 182.016 410.96 182.221 411.268C182.436 411.576 182.543 411.926 182.543 412.318C182.543 413.036 182.249 413.587 181.661 413.97C181.073 414.362 180.215 414.558 179.085 414.558C178.292 414.558 177.662 414.474 177.195 414.306C176.738 414.147 176.411 413.904 176.215 413.578C176.019 413.251 175.921 412.831 175.921 412.318H177.083C177.083 412.616 177.139 412.85 177.251 413.018C177.363 413.195 177.564 413.326 177.853 413.41C178.143 413.503 178.553 413.55 179.085 413.55C179.86 413.55 180.411 413.452 180.737 413.256C181.073 413.069 181.241 412.784 181.241 412.402C181.241 412.056 181.111 411.795 180.849 411.618C180.588 411.44 180.224 411.352 179.757 411.352H178.595C177.97 411.352 177.494 411.221 177.167 410.96C176.85 410.689 176.691 410.353 176.691 409.952C176.691 409.709 176.761 409.476 176.901 409.252C177.041 409.028 177.242 408.827 177.503 408.65C177.074 408.426 176.757 408.15 176.551 407.824C176.355 407.488 176.257 407.082 176.257 406.606C176.257 406.111 176.379 405.668 176.621 405.276C176.873 404.884 177.214 404.58 177.643 404.366C178.082 404.142 178.567 404.03 179.099 404.03C179.678 404.039 180.163 404.02 180.555 403.974C180.947 403.918 181.269 403.848 181.521 403.764C181.783 403.67 182.1 403.54 182.473 403.372L182.851 404.534ZM179.099 404.954C178.614 404.954 178.236 405.108 177.965 405.416C177.704 405.714 177.573 406.111 177.573 406.606C177.573 407.11 177.709 407.516 177.979 407.824C178.25 408.122 178.633 408.272 179.127 408.272C179.631 408.272 180.014 408.127 180.275 407.838C180.546 407.539 180.681 407.124 180.681 406.592C180.681 405.5 180.154 404.954 179.099 404.954ZM187.647 404.03C188.319 404.03 188.841 404.23 189.215 404.632C189.597 405.033 189.789 405.584 189.789 406.284V411.576H188.501V406.466C188.501 405.943 188.403 405.574 188.207 405.36C188.011 405.145 187.721 405.038 187.339 405.038C186.947 405.038 186.601 405.15 186.303 405.374C186.004 405.598 185.724 405.92 185.463 406.34V411.576H184.175V404.198H185.281L185.393 405.29C185.654 404.898 185.976 404.59 186.359 404.366C186.751 404.142 187.18 404.03 187.647 404.03ZM197.95 407.67C197.95 407.884 197.94 408.104 197.922 408.328H193.218C193.274 409.14 193.479 409.737 193.834 410.12C194.188 410.502 194.646 410.694 195.206 410.694C195.56 410.694 195.887 410.642 196.186 410.54C196.484 410.437 196.797 410.274 197.124 410.05L197.684 410.82C196.9 411.436 196.041 411.744 195.108 411.744C194.081 411.744 193.278 411.408 192.7 410.736C192.13 410.064 191.846 409.14 191.846 407.964C191.846 407.198 191.967 406.522 192.21 405.934C192.462 405.336 192.816 404.87 193.274 404.534C193.74 404.198 194.286 404.03 194.912 404.03C195.892 404.03 196.643 404.352 197.166 404.996C197.688 405.64 197.95 406.531 197.95 407.67ZM196.676 407.292C196.676 406.564 196.531 406.008 196.242 405.626C195.952 405.243 195.518 405.052 194.94 405.052C193.885 405.052 193.311 405.826 193.218 407.376H196.676V407.292ZM205.719 401.23V411.576H204.585L204.459 410.554C204.216 410.927 203.913 411.221 203.549 411.436C203.185 411.641 202.779 411.744 202.331 411.744C201.453 411.744 200.767 411.398 200.273 410.708C199.787 410.017 199.545 409.088 199.545 407.922C199.545 407.166 199.661 406.494 199.895 405.906C200.128 405.318 200.464 404.86 200.903 404.534C201.341 404.198 201.855 404.03 202.443 404.03C203.199 404.03 203.861 404.333 204.431 404.94V401.076L205.719 401.23ZM202.611 410.722C203.003 410.722 203.339 410.633 203.619 410.456C203.899 410.269 204.169 409.994 204.431 409.63V406.018C204.188 405.7 203.927 405.462 203.647 405.304C203.376 405.136 203.068 405.052 202.723 405.052C202.153 405.052 201.71 405.29 201.393 405.766C201.085 406.242 200.931 406.951 200.931 407.894C200.931 408.846 201.075 409.555 201.365 410.022C201.654 410.488 202.069 410.722 202.611 410.722ZM217.567 411.576H216.461L216.363 410.428C216.083 410.885 215.761 411.221 215.397 411.436C215.033 411.641 214.59 411.744 214.067 411.744C213.423 411.744 212.919 411.548 212.555 411.156C212.191 410.764 212.009 410.208 212.009 409.49V404.198H213.297V409.35C213.297 409.854 213.386 410.213 213.563 410.428C213.74 410.633 214.03 410.736 214.431 410.736C215.15 410.736 215.766 410.311 216.279 409.462V404.198H217.567V411.576ZM223.615 404.03C224.558 404.03 225.249 404.366 225.687 405.038C226.126 405.71 226.345 406.657 226.345 407.88C226.345 409.037 226.093 409.97 225.589 410.68C225.085 411.389 224.371 411.744 223.447 411.744C222.626 411.744 221.982 411.464 221.515 410.904V414.404L220.227 414.558V404.198H221.333L221.431 405.192C221.702 404.818 222.029 404.534 222.411 404.338C222.794 404.132 223.195 404.03 223.615 404.03ZM223.139 410.694C224.353 410.694 224.959 409.756 224.959 407.88C224.959 405.994 224.404 405.052 223.293 405.052C222.929 405.052 222.598 405.159 222.299 405.374C222.001 405.588 221.739 405.864 221.515 406.2V409.798C221.702 410.087 221.935 410.311 222.215 410.47C222.495 410.619 222.803 410.694 223.139 410.694ZM233.533 404.198V411.576H232.245V404.198H233.533ZM232.875 400.656C233.146 400.656 233.365 400.74 233.533 400.908C233.701 401.076 233.785 401.286 233.785 401.538C233.785 401.79 233.701 402 233.533 402.168C233.365 402.326 233.146 402.406 232.875 402.406C232.614 402.406 232.399 402.326 232.231 402.168C232.063 402 231.979 401.79 231.979 401.538C231.979 401.286 232.063 401.076 232.231 400.908C232.399 400.74 232.614 400.656 232.875 400.656ZM239.668 404.03C240.34 404.03 240.863 404.23 241.236 404.632C241.619 405.033 241.81 405.584 241.81 406.284V411.576H240.522V406.466C240.522 405.943 240.424 405.574 240.228 405.36C240.032 405.145 239.743 405.038 239.36 405.038C238.968 405.038 238.623 405.15 238.324 405.374C238.025 405.598 237.745 405.92 237.484 406.34V411.576H236.196V404.198H237.302L237.414 405.29C237.675 404.898 237.997 404.59 238.38 404.366C238.772 404.142 239.201 404.03 239.668 404.03ZM248.123 411.24C247.638 411.576 247.087 411.744 246.471 411.744C245.846 411.744 245.356 411.566 245.001 411.212C244.656 410.848 244.483 410.325 244.483 409.644V405.192H243.195V404.198H244.483V402.532L245.771 402.378V404.198H247.521L247.381 405.192H245.771V409.588C245.771 409.97 245.837 410.25 245.967 410.428C246.107 410.596 246.336 410.68 246.653 410.68C246.943 410.68 247.269 410.582 247.633 410.386L248.123 411.24ZM252.025 404.03C253.061 404.03 253.863 404.375 254.433 405.066C255.011 405.756 255.301 406.694 255.301 407.88C255.301 408.645 255.17 409.322 254.909 409.91C254.647 410.488 254.269 410.941 253.775 411.268C253.28 411.585 252.692 411.744 252.011 411.744C250.975 411.744 250.167 411.398 249.589 410.708C249.01 410.017 248.721 409.079 248.721 407.894C248.721 407.128 248.851 406.456 249.113 405.878C249.374 405.29 249.752 404.837 250.247 404.52C250.741 404.193 251.334 404.03 252.025 404.03ZM252.025 405.066C250.746 405.066 250.107 406.008 250.107 407.894C250.107 409.77 250.741 410.708 252.011 410.708C253.28 410.708 253.915 409.765 253.915 407.88C253.915 406.004 253.285 405.066 252.025 405.066ZM173.749 421.198L172.069 428.576H170.319L169.031 422.36L167.701 428.576H165.993L164.271 421.198H165.559L166.889 427.68L168.345 421.198H169.787L171.173 427.68L172.517 421.198H173.749ZM176.644 421.198V428.576H175.356V421.198H176.644ZM175.986 417.656C176.257 417.656 176.476 417.74 176.644 417.908C176.812 418.076 176.896 418.286 176.896 418.538C176.896 418.79 176.812 419 176.644 419.168C176.476 419.326 176.257 419.406 175.986 419.406C175.725 419.406 175.51 419.326 175.342 419.168C175.174 419 175.09 418.79 175.09 418.538C175.09 418.286 175.174 418.076 175.342 417.908C175.51 417.74 175.725 417.656 175.986 417.656ZM182.779 421.03C183.451 421.03 183.974 421.23 184.347 421.632C184.73 422.033 184.921 422.584 184.921 423.284V428.576H183.633V423.466C183.633 422.943 183.535 422.574 183.339 422.36C183.143 422.145 182.854 422.038 182.471 422.038C182.079 422.038 181.734 422.15 181.435 422.374C181.137 422.598 180.857 422.92 180.595 423.34V428.576H179.307V421.198H180.413L180.525 422.29C180.787 421.898 181.109 421.59 181.491 421.366C181.883 421.142 182.313 421.03 182.779 421.03ZM190.339 424.628L192.901 428.576H191.347L189.541 425.454L187.707 428.576H186.251L188.827 424.684L186.545 421.198H188.057L189.597 423.9L191.151 421.198H192.607L190.339 424.628ZM194.696 426.798C194.976 426.798 195.21 426.891 195.396 427.078C195.583 427.264 195.676 427.493 195.676 427.764C195.676 428.034 195.583 428.268 195.396 428.464C195.21 428.65 194.976 428.744 194.696 428.744C194.426 428.744 194.197 428.65 194.01 428.464C193.824 428.268 193.73 428.034 193.73 427.764C193.73 427.493 193.824 427.264 194.01 427.078C194.197 426.891 194.426 426.798 194.696 426.798ZM203.299 418.23V428.576H202.165L202.039 427.554C201.796 427.927 201.493 428.221 201.129 428.436C200.765 428.641 200.359 428.744 199.911 428.744C199.033 428.744 198.347 428.398 197.853 427.708C197.367 427.017 197.125 426.088 197.125 424.922C197.125 424.166 197.241 423.494 197.475 422.906C197.708 422.318 198.044 421.86 198.483 421.534C198.921 421.198 199.435 421.03 200.023 421.03C200.779 421.03 201.441 421.333 202.011 421.94V418.076L203.299 418.23ZM200.191 427.722C200.583 427.722 200.919 427.633 201.199 427.456C201.479 427.269 201.749 426.994 202.011 426.63V423.018C201.768 422.7 201.507 422.462 201.227 422.304C200.956 422.136 200.648 422.052 200.303 422.052C199.733 422.052 199.29 422.29 198.973 422.766C198.665 423.242 198.511 423.951 198.511 424.894C198.511 425.846 198.655 426.555 198.945 427.022C199.234 427.488 199.649 427.722 200.191 427.722ZM211.526 424.67C211.526 424.884 211.517 425.104 211.498 425.328H206.794C206.85 426.14 207.055 426.737 207.41 427.12C207.765 427.502 208.222 427.694 208.782 427.694C209.137 427.694 209.463 427.642 209.762 427.54C210.061 427.437 210.373 427.274 210.7 427.05L211.26 427.82C210.476 428.436 209.617 428.744 208.684 428.744C207.657 428.744 206.855 428.408 206.276 427.736C205.707 427.064 205.422 426.14 205.422 424.964C205.422 424.198 205.543 423.522 205.786 422.934C206.038 422.336 206.393 421.87 206.85 421.534C207.317 421.198 207.863 421.03 208.488 421.03C209.468 421.03 210.219 421.352 210.742 421.996C211.265 422.64 211.526 423.531 211.526 424.67ZM210.252 424.292C210.252 423.564 210.107 423.008 209.818 422.626C209.529 422.243 209.095 422.052 208.516 422.052C207.461 422.052 206.887 422.826 206.794 424.376H210.252V424.292ZM218.946 421.198L216.44 428.576H214.886L212.338 421.198H213.738L215.67 427.428L217.588 421.198H218.946ZM219.792 424.74V423.648H223.754V424.74H219.792ZM228.701 421.03C229.737 421.03 230.539 421.375 231.109 422.066C231.687 422.756 231.977 423.694 231.977 424.88C231.977 425.645 231.846 426.322 231.585 426.91C231.323 427.488 230.945 427.941 230.451 428.268C229.956 428.585 229.368 428.744 228.687 428.744C227.651 428.744 226.843 428.398 226.265 427.708C225.686 427.017 225.397 426.079 225.397 424.894C225.397 424.128 225.527 423.456 225.789 422.878C226.05 422.29 226.428 421.837 226.923 421.52C227.417 421.193 228.01 421.03 228.701 421.03ZM228.701 422.066C227.422 422.066 226.783 423.008 226.783 424.894C226.783 426.77 227.417 427.708 228.687 427.708C229.956 427.708 230.591 426.765 230.591 424.88C230.591 423.004 229.961 422.066 228.701 422.066ZM236.792 421.03C237.231 421.03 237.632 421.095 237.996 421.226C238.36 421.347 238.71 421.548 239.046 421.828L238.43 422.64C238.169 422.453 237.912 422.318 237.66 422.234C237.418 422.14 237.147 422.094 236.848 422.094C236.251 422.094 235.784 422.332 235.448 422.808C235.122 423.284 234.958 423.988 234.958 424.922C234.958 425.855 235.122 426.546 235.448 426.994C235.775 427.432 236.242 427.652 236.848 427.652C237.138 427.652 237.404 427.61 237.646 427.526C237.889 427.432 238.16 427.288 238.458 427.092L239.046 427.932C238.374 428.473 237.623 428.744 236.792 428.744C235.794 428.744 235.005 428.408 234.426 427.736C233.857 427.064 233.572 426.135 233.572 424.95C233.572 424.166 233.703 423.48 233.964 422.892C234.226 422.304 234.594 421.846 235.07 421.52C235.556 421.193 236.13 421.03 236.792 421.03ZM244.262 421.03C244.934 421.03 245.457 421.23 245.83 421.632C246.213 422.033 246.404 422.584 246.404 423.284V428.576H245.116V423.466C245.116 422.943 245.013 422.574 244.808 422.36C244.612 422.145 244.323 422.038 243.94 422.038C243.557 422.038 243.217 422.15 242.918 422.374C242.619 422.598 242.339 422.915 242.078 423.326V428.576H240.79V418.244L242.078 418.104V422.22C242.657 421.426 243.385 421.03 244.262 421.03ZM250.281 418.076V428.576H248.993V418.23L250.281 418.076ZM254.523 421.198L251.807 424.46L254.831 428.576H253.291L250.365 424.544L253.081 421.198H254.523ZM260.922 426.854C260.922 427.152 260.973 427.376 261.076 427.526C261.179 427.666 261.333 427.773 261.538 427.848L261.244 428.744C260.861 428.697 260.553 428.59 260.32 428.422C260.087 428.254 259.914 427.992 259.802 427.638C259.307 428.375 258.575 428.744 257.604 428.744C256.876 428.744 256.302 428.538 255.882 428.128C255.462 427.717 255.252 427.18 255.252 426.518C255.252 425.734 255.532 425.132 256.092 424.712C256.661 424.292 257.464 424.082 258.5 424.082H259.634V423.536C259.634 423.013 259.508 422.64 259.256 422.416C259.004 422.192 258.617 422.08 258.094 422.08C257.553 422.08 256.89 422.21 256.106 422.472L255.784 421.534C256.699 421.198 257.548 421.03 258.332 421.03C259.2 421.03 259.849 421.244 260.278 421.674C260.707 422.094 260.922 422.696 260.922 423.48V426.854ZM257.898 427.778C258.635 427.778 259.214 427.395 259.634 426.63V424.936H258.668C257.305 424.936 256.624 425.44 256.624 426.448C256.624 426.886 256.731 427.218 256.946 427.442C257.161 427.666 257.478 427.778 257.898 427.778ZM263.903 426.798C264.183 426.798 264.417 426.891 264.603 427.078C264.79 427.264 264.883 427.493 264.883 427.764C264.883 428.034 264.79 428.268 264.603 428.464C264.417 428.65 264.183 428.744 263.903 428.744C263.633 428.744 263.404 428.65 263.217 428.464C263.031 428.268 262.937 428.034 262.937 427.764C262.937 427.493 263.031 427.264 263.217 427.078C263.404 426.891 263.633 426.798 263.903 426.798ZM270.137 421.03C270.398 421.03 270.641 421.058 270.865 421.114L270.627 422.374C270.403 422.318 270.188 422.29 269.983 422.29C269.525 422.29 269.157 422.458 268.877 422.794C268.597 423.13 268.377 423.652 268.219 424.362V428.576H266.931V421.198H268.037L268.163 422.696C268.359 422.145 268.625 421.73 268.961 421.45C269.297 421.17 269.689 421.03 270.137 421.03ZM277.819 428.576H276.713L276.615 427.428C276.335 427.885 276.013 428.221 275.649 428.436C275.285 428.641 274.842 428.744 274.319 428.744C273.675 428.744 273.171 428.548 272.807 428.156C272.443 427.764 272.261 427.208 272.261 426.49V421.198H273.549V426.35C273.549 426.854 273.638 427.213 273.815 427.428C273.992 427.633 274.282 427.736 274.683 427.736C275.402 427.736 276.018 427.311 276.531 426.462V421.198H277.819V428.576Z" fill="#E5E5E5"/>
<line x1="749.991" y1="106.076" x2="558.991" y2="106.076" stroke="#2B2B2B"/>
<line x1="749.991" y1="160.076" x2="483.991" y2="160.076" stroke="#2B2B2B"/>
<line x1="749.991" y1="214.076" x2="448.991" y2="214.076" stroke="#2B2B2B"/>
<line x1="749.991" y1="268.076" x2="427.991" y2="268.076" stroke="#2B2B2B"/>
<line x1="748.991" y1="322.076" x2="412.991" y2="322.076" stroke="#2B2B2B"/>
<line x1="748.991" y1="376.076" x2="394.991" y2="376.076" stroke="#2B2B2B"/>
<line x1="748.991" y1="430.076" x2="365.991" y2="430.076" stroke="#2B2B2B"/>
<line x1="748.991" y1="484.076" x2="426.991" y2="484.076" stroke="#2B2B2B"/>
<line x1="748.991" y1="484.076" x2="309.991" y2="484.076" stroke="#2B2B2B"/>
<line x1="748.991" y1="538.076" x2="123.991" y2="538.076" stroke="#2B2B2B"/>
<line x1="47.4911" y1="540.576" x2="47.4911" y2="563.576" stroke="#2B2B2B"/>
<line x1="263.491" y1="508.576" x2="263.491" y2="564.576" stroke="#2B2B2B"/>
<line x1="317.491" y1="479.576" x2="317.491" y2="564.576" stroke="#2B2B2B"/>
<line x1="371.491" y1="420.576" x2="371.491" y2="564.576" stroke="#2B2B2B"/>
<line x1="425.491" y1="276.576" x2="425.491" y2="564.576" stroke="#2B2B2B"/>
<line x1="101.491" y1="539.576" x2="101.491" y2="564.576" stroke="#2B2B2B"/>
<line x1="155.491" y1="533.576" x2="155.491" y2="563.576" stroke="#2B2B2B"/>
<line x1="533.491" y1="119.576" x2="533.491" y2="564.576" stroke="#2B2B2B"/>
<line x1="587.491" y1="93.5757" x2="587.491" y2="564.576" stroke="#2B2B2B"/>
<line x1="641.491" y1="77.5757" x2="641.491" y2="563.576" stroke="#2B2B2B"/>
<line x1="695.491" y1="70.5757" x2="695.491" y2="564.576" stroke="#2B2B2B"/>
<line x1="749.491" y1="65.5757" x2="749.491" y2="564.576" stroke="#2B2B2B"/>
<line x1="209.491" y1="525.576" x2="209.491" y2="564.576" stroke="#2B2B2B"/>
<line x1="479.491" y1="167.576" x2="479.491" y2="564.576" stroke="#2B2B2B"/>
<path d="M40.1473 541.336C639.991 541.336 199.335 96.3158 752.491 64.0757M752.491 64.0757L745.491 57.0757M752.491 64.0757L745.491 71.0757" stroke="#FF80E5" stroke-width="3"/>
<circle cx="216.991" cy="522.576" r="7" fill="#E5E5E5"/>
<path d="M40 64V64.0019M40 64L35 68.4622L40 64.0019M40 64L45 68.4622M753 563.551H40V64.0019M753 563.551L748 558.097M753 563.551L748 569" stroke="url(#paint0_linear)" stroke-width="2"/>
<defs>
<linearGradient id="paint0_linear" x1="394.5" y1="316.749" x2="37.6321" y2="571.491" gradientUnits="userSpaceOnUse">
<stop stop-color="#C70048"/>
<stop offset="1" stop-color="#8900DE"/>
</linearGradient>
</defs>
</svg>
