<svg width="1614" height="517" viewBox="0 0 1614 517" fill="none" xmlns="http://www.w3.org/2000/svg">
<line x1="99.6464" y1="427.646" x2="439.646" y2="87.6465" stroke="#2B2B2B"/>
<line x1="776.354" y1="69.3536" x2="397.354" y2="448.354" stroke="#2B2B2B"/>
<line x1="1125.65" y1="516.646" x2="1613.65" y2="28.6464" stroke="#2B2B2B"/>
<line x1="1190.35" y1="87.6464" x2="1560.35" y2="457.646" stroke="#2B2B2B"/>
<line x1="630.354" y1="9.64645" x2="955.354" y2="334.646" stroke="#2B2B2B"/>
<line x1="762.646" y1="506.354" x2="464.646" y2="208.354" stroke="#2B2B2B"/>
<line x1="0.353553" y1="0.646447" x2="467.354" y2="467.646" stroke="#2B2B2B"/>
<path d="M679.548 170.295L684.448 171.291L685.666 165.295H679.548V170.295ZM631.248 408V413H635.334L636.148 408.996L631.248 408ZM589.158 408L584.275 409.075L585.139 413H589.158V408ZM545.343 208.935L550.226 207.86L540.462 207.852L545.343 208.935ZM501.183 408V413H505.195L506.064 409.083L501.183 408ZM460.128 408L455.228 408.996L456.042 413H460.128V408ZM411.828 170.295V165.295H405.71L406.928 171.291L411.828 170.295ZM443.913 170.295L448.831 169.394L448.08 165.295H443.913V170.295ZM482.208 379.365L477.29 380.266L487.092 380.437L482.208 379.365ZM528.093 170.295V165.295H524.071L523.209 169.223L528.093 170.295ZM562.938 170.295L567.817 169.2L566.94 165.295H562.938V170.295ZM609.858 379.365L604.979 380.46L614.77 380.297L609.858 379.365ZM649.533 170.295V165.295H645.393L644.621 169.363L649.533 170.295ZM674.648 169.299L626.348 407.004L636.148 408.996L684.448 171.291L674.648 169.299ZM631.248 403H589.158V413H631.248V403ZM594.041 406.925L550.226 207.86L540.46 210.01L584.275 409.075L594.041 406.925ZM540.462 207.852L496.302 406.917L506.064 409.083L550.224 210.018L540.462 207.852ZM501.183 403H460.128V413H501.183V403ZM465.028 407.004L416.728 169.299L406.928 171.291L455.228 408.996L465.028 407.004ZM411.828 175.295H443.913V165.295H411.828V175.295ZM438.995 171.196L477.29 380.266L487.126 378.464L448.831 169.394L438.995 171.196ZM487.092 380.437L532.977 171.367L523.209 169.223L477.324 378.293L487.092 380.437ZM528.093 175.295H562.938V165.295H528.093V175.295ZM558.059 171.39L604.979 380.46L614.737 378.27L567.817 169.2L558.059 171.39ZM614.77 380.297L654.445 171.227L644.621 169.363L604.946 378.433L614.77 380.297ZM649.533 175.295H679.548V165.295H649.533V175.295ZM755.507 170.295H760.507V165.295H755.507V170.295ZM755.507 408V413H760.507V408H755.507ZM722.732 408H717.732V413H722.732V408ZM722.732 170.295V165.295H717.732V170.295H722.732ZM750.507 170.295V408H760.507V170.295H750.507ZM755.507 403H722.732V413H755.507V403ZM727.732 408V170.295H717.732V408H727.732ZM722.732 175.295H755.507V165.295H722.732V175.295ZM991.115 408V413H996.115V408H991.115ZM947.3 408L942.79 410.159L944.15 413H947.3V408ZM850.7 206.175L855.21 204.016L845.719 206.608L850.7 206.175ZM853.805 250.335L848.812 250.589L848.814 250.634L848.817 250.679L853.805 250.335ZM855.185 408V413H860.185V408H855.185ZM824.48 408H819.48V413H824.48V408ZM824.48 170.295V165.295H819.48V170.295H824.48ZM867.26 170.295L871.763 168.121L870.398 165.295H867.26V170.295ZM964.896 372.465L960.393 374.639L969.863 371.892L964.896 372.465ZM960.41 170.295V165.295H955.41V170.295H960.41ZM991.115 170.295H996.115V165.295H991.115V170.295ZM991.115 403H947.3V413H991.115V403ZM951.81 405.841L855.21 204.016L846.19 208.334L942.79 410.159L951.81 405.841ZM845.719 206.608C847.095 222.428 848.125 237.088 848.812 250.589L858.799 250.081C858.106 236.442 857.066 221.662 855.682 205.742L845.719 206.608ZM848.817 250.679C849.727 263.868 850.185 279.961 850.185 298.98H860.185C860.185 279.819 859.724 263.482 858.794 249.991L848.817 250.679ZM850.185 298.98V408H860.185V298.98H850.185ZM855.185 403H824.48V413H855.185V403ZM829.48 408V170.295H819.48V408H829.48ZM824.48 175.295H867.26V165.295H824.48V175.295ZM862.758 172.469L960.393 374.639L969.398 370.291L871.763 168.121L862.758 172.469ZM969.863 371.892C969.185 366.017 968.271 355.639 967.121 340.687L957.15 341.453C958.3 356.401 959.226 366.953 959.928 373.038L969.863 371.892ZM967.121 340.687C965.979 325.839 965.41 312.284 965.41 300.015H955.41C955.41 312.586 955.992 326.401 957.15 341.453L967.121 340.687ZM965.41 300.015V170.295H955.41V300.015H965.41ZM960.41 175.295H991.115V165.295H960.41V175.295ZM986.115 170.295V408H996.115V170.295H986.115ZM1137.61 279.66L1133.3 277.12L1131.84 279.605L1133.25 282.118L1137.61 279.66ZM1210.06 408V413H1218.62L1214.41 405.542L1210.06 408ZM1172.8 408L1168.36 410.311L1169.77 413H1172.8V408ZM1117.94 302.775L1122.38 300.464L1117.97 292.012L1113.52 300.441L1117.94 302.775ZM1062.4 408V413H1065.41L1066.82 410.334L1062.4 408ZM1027.21 408L1022.85 405.544L1018.65 413H1027.21V408ZM1098.62 281.385L1102.98 283.841L1104.39 281.335L1102.94 278.854L1098.62 281.385ZM1033.42 170.295V165.295H1024.69L1029.11 172.826L1033.42 170.295ZM1070.68 170.295L1075.08 167.931L1073.67 165.295H1070.68V170.295ZM1118.63 259.65L1114.23 262.014L1118.62 270.194L1123.03 262.028L1118.63 259.65ZM1166.93 170.295V165.295H1163.95L1162.53 167.917L1166.93 170.295ZM1202.12 170.295L1206.43 172.835L1210.88 165.295H1202.12V170.295ZM1133.25 282.118L1205.7 410.458L1214.41 405.542L1141.96 277.202L1133.25 282.118ZM1210.06 403H1172.8V413H1210.06V403ZM1177.23 405.689L1122.38 300.464L1113.51 305.086L1168.36 410.311L1177.23 405.689ZM1113.52 300.441L1057.98 405.666L1066.82 410.334L1122.37 305.109L1113.52 300.441ZM1062.4 403H1027.21V413H1062.4V403ZM1031.56 410.456L1102.98 283.841L1094.27 278.929L1022.85 405.544L1031.56 410.456ZM1102.94 278.854L1037.73 167.764L1029.11 172.826L1094.31 283.916L1102.94 278.854ZM1033.42 175.295H1070.68V165.295H1033.42V175.295ZM1066.27 172.659L1114.23 262.014L1123.04 257.286L1075.08 167.931L1066.27 172.659ZM1123.03 262.028L1171.33 172.673L1162.53 167.917L1114.23 257.272L1123.03 262.028ZM1166.93 175.295H1202.12V165.295H1166.93V175.295ZM1197.82 167.755L1133.3 277.12L1141.91 282.2L1206.43 172.835L1197.82 167.755Z" fill="url(#paint0_linear)"/>
<defs>
<linearGradient id="paint0_linear" x1="302" y1="59" x2="1397" y2="519.5" gradientUnits="userSpaceOnUse">
<stop stop-color="#8900DE"/>
<stop offset="0.9999" stop-color="#C70048"/>
<stop offset="1" stop-color="#E5E5E5" stop-opacity="0"/>
</linearGradient>
</defs>
</svg>
